<?xml version="1.0" encoding="UTF-8"?><svg xmlns="http://www.w3.org/2000/svg" xmlns:xlink="http://www.w3.org/1999/xlink" width="37.5pt" zoomAndPan="magnify" viewBox="0 0 37.5 30.000001" height="30.000001pt" preserveAspectRatio="xMidYMid meet" version="1.2"><defs><g/></defs><g xml:id="surface1" id="surface1"><g style="fill:rgb(100%,34.118652%,34.118652%);fill-opacity:1;"><g transform="translate(10.521773, 20.652524)"><path style="stroke:none;" d="M 4.046875 -8.8125 C 4.890625 -8.8125 5.679688 -8.664062 6.421875 -8.375 L 6.09375 -6.5625 L 5.796875 -6.46875 C 5.429688 -6.695312 5.066406 -6.875 4.703125 -7 C 4.347656 -7.125 4.035156 -7.1875 3.765625 -7.1875 C 3.460938 -7.1875 3.222656 -7.109375 3.046875 -6.953125 C 2.878906 -6.796875 2.796875 -6.609375 2.796875 -6.390625 C 2.796875 -6.128906 2.910156 -5.914062 3.140625 -5.75 C 3.367188 -5.59375 3.734375 -5.414062 4.234375 -5.21875 C 4.722656 -5.019531 5.128906 -4.828125 5.453125 -4.640625 C 5.773438 -4.453125 6.050781 -4.191406 6.28125 -3.859375 C 6.507812 -3.535156 6.625 -3.128906 6.625 -2.640625 C 6.625 -2.148438 6.492188 -1.6875 6.234375 -1.25 C 5.984375 -0.820312 5.597656 -0.472656 5.078125 -0.203125 C 4.554688 0.0546875 3.921875 0.1875 3.171875 0.1875 C 2.273438 0.1875 1.347656 0 0.390625 -0.375 L 0.671875 -2.3125 L 0.90625 -2.453125 C 1.289062 -2.128906 1.71875 -1.867188 2.1875 -1.671875 C 2.664062 -1.484375 3.085938 -1.390625 3.453125 -1.390625 C 3.785156 -1.390625 4.039062 -1.472656 4.21875 -1.640625 C 4.40625 -1.816406 4.5 -2.019531 4.5 -2.25 C 4.5 -2.507812 4.382812 -2.71875 4.15625 -2.875 C 3.925781 -3.039062 3.566406 -3.222656 3.078125 -3.421875 C 2.566406 -3.648438 2.148438 -3.851562 1.828125 -4.03125 C 1.503906 -4.207031 1.226562 -4.460938 1 -4.796875 C 0.769531 -5.140625 0.65625 -5.554688 0.65625 -6.046875 C 0.65625 -6.859375 0.957031 -7.519531 1.5625 -8.03125 C 2.175781 -8.550781 3.003906 -8.8125 4.046875 -8.8125 Z M 4.046875 -8.8125 "/></g></g><g style="fill:rgb(100%,34.118652%,34.118652%);fill-opacity:1;"><g transform="translate(17.675098, 20.652524)"><path style="stroke:none;" d="M 9.46875 -7.484375 C 9.125 -7.398438 8.644531 -7.304688 8.03125 -7.203125 L 7.984375 -7.140625 C 8.171875 -6.765625 8.265625 -6.347656 8.265625 -5.890625 C 8.265625 -4.953125 7.925781 -4.207031 7.25 -3.65625 C 6.570312 -3.101562 5.65625 -2.828125 4.5 -2.828125 C 4.15625 -2.828125 3.796875 -2.859375 3.421875 -2.921875 C 3.316406 -2.804688 3.242188 -2.71875 3.203125 -2.65625 C 3.160156 -2.59375 3.140625 -2.519531 3.140625 -2.4375 C 3.140625 -2.21875 3.289062 -2.0625 3.59375 -1.96875 C 3.894531 -1.882812 4.367188 -1.800781 5.015625 -1.71875 C 5.742188 -1.625 6.351562 -1.515625 6.84375 -1.390625 C 7.332031 -1.265625 7.753906 -1.046875 8.109375 -0.734375 C 8.460938 -0.429688 8.640625 0.00390625 8.640625 0.578125 C 8.640625 1.160156 8.457031 1.679688 8.09375 2.140625 C 7.726562 2.609375 7.222656 2.972656 6.578125 3.234375 C 5.929688 3.492188 5.195312 3.625 4.375 3.625 C 3.25 3.625 2.378906 3.394531 1.765625 2.9375 C 1.160156 2.476562 0.859375 1.875 0.859375 1.125 C 1.242188 0.582031 1.757812 0.113281 2.40625 -0.28125 L 2.40625 -0.375 C 1.976562 -0.519531 1.644531 -0.722656 1.40625 -0.984375 C 1.175781 -1.253906 1.0625 -1.613281 1.0625 -2.0625 C 1.394531 -2.476562 1.816406 -2.859375 2.328125 -3.203125 L 2.328125 -3.296875 C 1.878906 -3.546875 1.539062 -3.867188 1.3125 -4.265625 C 1.082031 -4.671875 0.96875 -5.148438 0.96875 -5.703125 C 0.96875 -6.671875 1.300781 -7.425781 1.96875 -7.96875 C 2.644531 -8.519531 3.5625 -8.796875 4.71875 -8.796875 C 5.382812 -8.796875 5.988281 -8.679688 6.53125 -8.453125 C 7.425781 -8.617188 8.34375 -8.867188 9.28125 -9.203125 L 9.46875 -9.03125 Z M 4.578125 -4.328125 C 5.085938 -4.328125 5.472656 -4.457031 5.734375 -4.71875 C 5.992188 -4.976562 6.125 -5.351562 6.125 -5.84375 C 6.125 -6.789062 5.640625 -7.265625 4.671875 -7.265625 C 3.628906 -7.265625 3.109375 -6.785156 3.109375 -5.828125 C 3.109375 -5.328125 3.234375 -4.953125 3.484375 -4.703125 C 3.734375 -4.453125 4.097656 -4.328125 4.578125 -4.328125 Z M 6.5625 1.03125 C 6.5625 0.6875 6.382812 0.453125 6.03125 0.328125 C 5.675781 0.210938 5.128906 0.109375 4.390625 0.015625 L 3.765625 -0.078125 C 3.460938 0.117188 3.238281 0.3125 3.09375 0.5 C 2.945312 0.6875 2.875 0.882812 2.875 1.09375 C 2.875 1.414062 3.019531 1.675781 3.3125 1.875 C 3.613281 2.070312 4.050781 2.171875 4.625 2.171875 C 5.207031 2.171875 5.675781 2.066406 6.03125 1.859375 C 6.382812 1.660156 6.5625 1.382812 6.5625 1.03125 Z M 6.5625 1.03125 "/></g></g></g></svg>